<?xml version="1.0" encoding="utf-8"?>
<!-- Generator: Adobe Illustrator 19.0.0, SVG Export Plug-In . SVG Version: 6.00 Build 0)  -->
<svg version="1.1" id="Layer_1" xmlns="http://www.w3.org/2000/svg" xmlns:xlink="http://www.w3.org/1999/xlink" x="0px" y="0px"
	 viewBox="328.1 574.5 754.9 242.5" style="enable-background:new 328.1 574.5 754.9 242.5;" xml:space="preserve">
<style type="text/css">
	.st0{fill:#8C8B8C;}
	.st1{fill:#945A8E;}
</style>
<g id="XMLID_35_">
	<path id="XMLID_36_" class="st0" d="M328.9,608.5H340v41.6h0.4c2.3-3.3,4.6-6.4,6.8-9.2l26.4-32.4h13.8l-31.2,36.6l33.7,49.7h-13.2
		l-28.4-42.4l-8.2,9.5v32.9h-11.2V608.5z"/>
	<path id="XMLID_38_" class="st0" d="M486.1,650.7c0,29.7-18,45.4-40.1,45.4c-22.8,0-38.8-17.6-38.8-43.7c0-27.4,17-45.3,40.1-45.3
		C470.9,607.1,486.1,625.1,486.1,650.7z M419.1,652.1c0,18.4,10,34.9,27.5,34.9c17.7,0,27.6-16.3,27.6-35.8c0-17.1-9-35.1-27.5-35.1
		C428.4,616.1,419.1,633.2,419.1,652.1z"/>
	<path id="XMLID_41_" class="st0" d="M589.5,656.8c-0.6-12-1.4-26.5-1.3-37.2h-0.4c-2.9,10.1-6.5,20.9-10.9,32.8l-15.2,41.8h-8.4
		l-13.9-41.1c-4.1-12.2-7.6-23.3-10-33.5h-0.3c-0.3,10.8-0.9,25.2-1.7,38.1l-2.3,37h-10.6l6-86.3h14.2l14.7,41.7
		c3.6,10.6,6.5,20.1,8.7,29.1h0.4c2.2-8.7,5.2-18.2,9.1-29.1l15.4-41.7h14.2l5.4,86.3h-10.9L589.5,656.8z"/>
	<path id="XMLID_43_" class="st0" d="M635.9,609.5c5.4-0.9,12.4-1.7,21.4-1.7c11,0,19.1,2.6,24.2,7.2c4.7,4.1,7.6,10.4,7.6,18
		c0,7.8-2.3,13.9-6.7,18.4c-5.9,6.3-15.5,9.5-26.4,9.5c-3.3,0-6.4-0.1-9-0.8v34.6h-11.1V609.5z M647.1,651.1
		c2.4,0.6,5.5,0.9,9.2,0.9c13.4,0,21.6-6.5,21.6-18.4c0-11.4-8.1-16.9-20.3-16.9c-4.9,0-8.6,0.4-10.5,0.9L647.1,651.1L647.1,651.1z"
		/>
</g>
<g id="XMLID_28_">
	<path id="XMLID_29_" class="st0" d="M890.6,654.3h-33.5v31.1h37.4v9.3H846v-86.2h46.6v9.3h-35.4v27.3h33.5L890.6,654.3L890.6,654.3
		z"/>
	<path id="XMLID_31_" class="st0" d="M923.7,694.7v-86.2h12.2l27.6,43.6c6.4,10.1,11.4,19.2,15.5,28l0.3-0.1
		c-1-11.5-1.3-22-1.3-35.4v-36.1h10.5v86.3h-11.3L949.8,651c-6-9.6-11.8-19.5-16.1-28.8l-0.4,0.1c0.6,10.9,0.9,21.2,0.9,35.6v36.9
		L923.7,694.7L923.7,694.7z"/>
	<path id="XMLID_33_" class="st0" d="M1016.9,688.2l47.9-70v-0.4H1021v-9.3h58.2v6.8l-47.6,69.7v0.4h48.2v9.3h-63L1016.9,688.2
		L1016.9,688.2z"/>
</g>
<g id="XMLID_23_">
	<path id="XMLID_24_" class="st1" d="M736.3,574.5v87.3H725v-87.3H736.3z"/>
	<path id="XMLID_26_" class="st1" d="M783.6,584.1H757v-9.6h64.7v9.6H795v77.7h-11.4V584.1z"/>
</g>
<polygon id="XMLID_4_" class="st1" points="656.5,762.6 757.7,762.6 757.7,729.7 "/>
<g id="XMLID_9_">
	<polygon id="XMLID_3_" class="st0" points="640.8,817 741.9,782.3 640.8,782.3 	"/>
</g>
<polygon id="XMLID_2_" class="st0" points="328.1,770.3 605.1,769.9 605.1,774.5 328.1,774.9 "/>
<rect id="XMLID_1_" x="793.2" y="770.3" class="st0" width="289.8" height="4.6"/>
</svg>
